<svg id="Layer_1" data-name="Layer 1" xmlns="http://www.w3.org/2000/svg" viewBox="0 0 256 256"><defs><style>.cls-1{fill:#fff;}</style></defs><title>shield</title><path class="cls-1" d="M128,3C75.71,3,38.34,24.14,23.42,36.14v95.1C23.42,201.15,128,253,128,253s104.58-51.85,104.58-121.76V36.14C217.66,24.14,180.29,3,128,3Zm75.53,124.56c0,50.49-75.53,87.94-75.53,87.94s-75.53-37.45-75.53-87.94V58.88C63.25,50.21,90.24,34.94,128,34.94s64.75,15.27,75.53,23.94Z"/><path class="cls-1" d="M149.45,52.81A108.09,108.09,0,0,0,128,50.67c-30,0-51.48,12.14-60,19v54.6a42,42,0,0,0,1,9Z"/><path class="cls-1" d="M96.49,173A173.46,173.46,0,0,0,128,194.21s60.05-29.77,60.05-69.91V81.49Z"/></svg>