<svg id="Layer_1" data-name="Layer 1" xmlns="http://www.w3.org/2000/svg" viewBox="0 0 256 256"><defs><style>.cls-1{fill:#fff;}</style></defs><title>rebreathe</title><path class="cls-1" d="M59.31,69.1c-1.87-3.25-3.76-6.5-5.56-9.62l15.64-9c3.27,5.67,6.48,11.06,9.46,16.56a4,4,0,0,1-.39,3.19c-2.13,3.8-4.9,7.3-6.64,11.25-8.35,19-5.67,36.86,5.32,54l93.22-53.82c-3.07-4.72-5.85-9.46-9.42-13.51-12.55-14.21-28.58-19.85-47.37-17.89-1.08.11-2.82,0-3.22-.69-3.46-5.59-6.67-11.33-10.08-17.23,3.88-2.25,7.49-4.25,11-6.4,3.12-1.89,3.73-5.09,1.45-7.27-1.94-1.85-4-1.47-6.17-.23-3.54,2.06-7.09,4.1-10.79,6.23-3.64-6.3-7-12.12-10.36-17.93C83,2.53,81.24,2,76.94,4.47q-10.09,5.73-20.1,11.6c-4.38,2.57-4.77,4.28-2.2,8.75q5,8.7,10,17.43L49,51.29c-2.12-3.66-4-7.08-6.05-10.44s-4-3.91-7.24-2.07C31,41.47,26.19,44.21,21.47,47c-3,1.8-3.54,3.69-1.82,6.71q8.61,15,17.32,30c1.75,3,3.65,3.5,6.72,1.78,4.5-2.52,9-5.12,13.42-7.71S61.88,73.59,59.31,69.1Z"/><path class="cls-1" d="M235.9,195.66c-6.06-10.51-17.82-30.71-22.17-38.1l-92.88,53.62q11.25,19.51,22.52,39c1.89,3.24,3.95,3.62,7.66,1.48q41.39-23.85,82.74-47.77C237.81,201.55,238.25,199.73,235.9,195.66Z"/><path class="cls-1" d="M177.47,94.85,84.76,148.38l28.72,49.74,92.71-53.53C196.57,127.94,187.05,111.44,177.47,94.85Zm-28.38,67.44a6.77,6.77,0,0,1-3.29,4.31l-17.59,10.15a7,7,0,0,1-9.69-2.59l-10.15-17.59a7,7,0,0,1,2.59-9.69l17.59-10.15a7.12,7.12,0,0,1,9.69,2.59l10.16,17.59A6.84,6.84,0,0,1,149.09,162.29Zm.77-13.47a6.64,6.64,0,0,1-.67-5.28,6.73,6.73,0,0,1,3.26-4.23l16.92-9.78L166,123.6l-16.64,9.61,1.39,2.4-6.35,3.67-1.58-2.74a6.64,6.64,0,0,1-.67-5.28,6.76,6.76,0,0,1,3.26-4.23l17.21-9.94a6.78,6.78,0,0,1,5.3-.71,6.63,6.63,0,0,1,4.23,3.22l3.81,6.6a7,7,0,0,1-2.56,9.55l-16.92,9.78,2.8,4.85,23-13.27,3.67,6.35L156.55,160.4Z"/><rect class="cls-1" x="118.57" y="146.99" width="19.55" height="19.55" transform="translate(-61.19 85.17) rotate(-30)"/></svg>