<svg id="Layer_1" data-name="Layer 1" xmlns="http://www.w3.org/2000/svg" viewBox="0 0 256 256"><defs><style>.cls-1{fill:#fff;}</style></defs><title>syphon-01</title><path class="cls-1" d="M101.39,88.38l27.2,27.24a3.93,3.93,0,0,1,0,5.52l-5.52,5.52a3.93,3.93,0,0,1-5.52,0L90.36,99.41,68.24,121.53l27.24,27.24a3.91,3.91,0,0,1,0,5.52L90,159.81a3.93,3.93,0,0,1-5.52,0L57.21,132.52,44.32,145.41a39,39,0,0,0-11.23,31.93l3.46,31L4.14,240.81a3.9,3.9,0,0,0,0,5.51l5.51,5.52a3.93,3.93,0,0,0,5.52,0l32.37-32.37,31.05,3.47a38.87,38.87,0,0,0,31.93-11.23l88.81-88.81L133.08,56.64,101.39,88.38ZM251.86,42.83,213.2,4.16a3.93,3.93,0,0,0-5.52,0l-5.52,5.52a3.92,3.92,0,0,0,0,5.51L216,29,193.86,51.13,166.23,23.49l-8.3-8.3a3.93,3.93,0,0,0-5.52,0L135.86,31.74a3.93,3.93,0,0,0,0,5.52l8.3,8.3,66.25,66.35,8.3,8.3a3.91,3.91,0,0,0,5.52,0l16.55-16.6a3.9,3.9,0,0,0,0-5.51L204.9,62.21,227,40.09l13.82,13.82a3.93,3.93,0,0,0,5.52,0l5.51-5.52a4,4,0,0,0,0-5.56Z"/><path class="cls-1" d="M101.39,88.38l27.2,27.24a3.93,3.93,0,0,1,0,5.52l-5.52,5.52a3.93,3.93,0,0,1-5.52,0L90.36,99.41,68.24,121.53l27.24,27.24a3.91,3.91,0,0,1,0,5.52L90,159.81a3.93,3.93,0,0,1-5.52,0L57.21,132.52,44.32,145.41a39,39,0,0,0-11.23,31.93l3.46,31L4.14,240.81a3.9,3.9,0,0,0,0,5.51l5.51,5.52a3.93,3.93,0,0,0,5.52,0l32.37-32.37,31.05,3.47a38.87,38.87,0,0,0,31.93-11.23l88.81-88.81L133.08,56.64,101.39,88.38ZM251.86,42.83,213.2,4.16a3.93,3.93,0,0,0-5.52,0l-5.52,5.52a3.92,3.92,0,0,0,0,5.51L216,29,193.86,51.13,166.23,23.49l-8.3-8.3a3.93,3.93,0,0,0-5.52,0L135.86,31.74a3.93,3.93,0,0,0,0,5.52l8.3,8.3,66.25,66.35,8.3,8.3a3.91,3.91,0,0,0,5.52,0l16.55-16.6a3.9,3.9,0,0,0,0-5.51L204.9,62.21,227,40.09l13.82,13.82a3.93,3.93,0,0,0,5.52,0l5.51-5.52a4,4,0,0,0,0-5.56Z"/></svg>