<svg id="Layer_1" data-name="Layer 1" xmlns="http://www.w3.org/2000/svg" viewBox="0 0 256 256"><defs><style>.cls-1{fill:#fff;}</style></defs><title>ai</title><path class="cls-1" d="M198.61,213.54c-7.84,0-13.49-4.93-15-12.67a6,6,0,0,0-2.13-3.45q-14.88-10.92-30-21.58a7.35,7.35,0,0,0-3.93-1.25q-19.62-.14-39.24,0a6.81,6.81,0,0,0-3.68,1.12q-15.18,10.76-30.19,21.74a6.09,6.09,0,0,0-2.12,3.47c-1.6,8.43-7.84,13.13-17,12.58C49,213.1,42.63,206.56,42.31,200c-.41-8.51,4.89-15.17,13-16.54a5.12,5.12,0,0,0,3-1.8q11.12-15.1,22-30.36a6.18,6.18,0,0,0,1-3.45q.1-19.91,0-39.81a6.71,6.71,0,0,0-1.15-3.66Q69.32,89.25,58.3,74.25a5.32,5.32,0,0,0-3-1.73c-8.32-1.71-13.32-8-13-16.64.28-7,6.61-13.05,14.44-13.81,6.72-.64,14.36,5.51,15.59,12.23A7.49,7.49,0,0,0,75,58.64q14.22,10.6,28.73,20.83a10.76,10.76,0,0,0,5.74,1.89q18.61.26,37.23,0a10.25,10.25,0,0,0,5.51-1.73c9.82-6.92,19.53-14,29.2-21.15a6.18,6.18,0,0,0,2.27-3.36c1.53-7.73,7.84-13.3,15.12-13.07s14.17,6.12,15,13c.92,8-3.8,15.2-11.64,17a9,9,0,0,0-5.77,4.06Q186.64,89.59,176.8,103a10.21,10.21,0,0,0-2.09,6.58c.1,12.6,0,25.2.11,37.8a8.81,8.81,0,0,0,1.5,4.69c6.82,9.66,13.83,19.2,20.71,28.82a6.42,6.42,0,0,0,4.59,2.85c7.67,1.26,12.92,8.83,12.09,16.93C213,207.77,206.18,213.58,198.61,213.54Z"/><path class="cls-1" d="M64.53,144.94c-5.57,7.72-10.9,15.15-16.31,22.53A5.42,5.42,0,0,1,45.91,169c-13.46,5.61-21.52,18.74-20,32.75a31.62,31.62,0,0,0,25.91,28c13.93,2.51,28.31-4.28,34.79-18.69a12,12,0,0,1,3.62-4.53c6.7-5,13.55-9.87,20.39-14.81,3.92,10.13-.85,31.54-14.57,45.27a54.37,54.37,0,0,1-68.56,6.84C6.61,230-2.88,202.7,7,178.31,16.31,155.21,40.8,140.75,64.53,144.94Z"/><path class="cls-1" d="M145.25,191.56c7.67,5.55,15.12,10.88,22.46,16.34.89.66,1.31,2,1.82,3.14,6,13.26,17.51,19.52,30.21,19.18a31.24,31.24,0,0,0,28.88-21.48c5.32-16.34-2.48-33.12-18.43-39.74a6.54,6.54,0,0,1-2.68-2c-5.13-7-10.17-14.07-15.23-21.12a5.79,5.79,0,0,1-.45-1c22.29-4.2,46.08,9.07,56.29,31.28,10.34,22.51,3.86,49.06-15.8,64.91-19.1,15.4-47.39,15.93-67.52,0C148.33,228.16,141.46,205.29,145.25,191.56Z"/><path class="cls-1" d="M191.81,110.54c3.05-4.24,6-8.4,9-12.55.72-1,1.53-2,2.2-3a29.22,29.22,0,0,1,11.5-10.51c17.64-9.31,20.93-34.47,7.18-48.88a31.75,31.75,0,0,0-52.55,10.17,5.24,5.24,0,0,1-1.51,2.32c-7.39,5.38-14.84,10.67-22.33,16-3.95-12,2.35-35.95,19.32-49.29,21.23-16.69,52.07-15.49,71.25,3,20,19.27,23.17,49.54,5.81,72.77C227.76,109.23,203.34,114.34,191.81,110.54Z"/><path class="cls-1" d="M111,64.27c-7.73-5.53-15.18-10.83-22.58-16.21a5.66,5.66,0,0,1-1.5-2.34c-5.47-12.62-15.17-19.42-28.79-20C42,25,28.82,37.42,26.29,51.51a32,32,0,0,0,19.59,35.3A4.79,4.79,0,0,1,48,88.12c5.4,7.38,10.73,14.81,16.08,22.23-8.11,5.81-34.18-2.71-45.76-15.11-19-20.35-20.8-49.69-3-72.37,16-20.29,46.05-25.72,69.12-12.7C106.19,22.4,114.72,48.17,111,64.27Z"/></svg>