<svg id="Layer_1" data-name="Layer 1" xmlns="http://www.w3.org/2000/svg" viewBox="0 0 256 256"><defs><style>.cls-1{fill:#fff;}</style></defs><title>aiUp</title><path class="cls-1" d="M64.53,144.94c-5.57,7.72-10.9,15.15-16.31,22.53A5.42,5.42,0,0,1,45.91,169c-13.46,5.61-21.52,18.74-20,32.75a31.62,31.62,0,0,0,25.91,28c13.93,2.51,28.31-4.28,34.79-18.69a12,12,0,0,1,3.62-4.53c6.7-5,13.55-9.87,20.39-14.81,3.92,10.13-.85,31.54-14.57,45.27a54.37,54.37,0,0,1-68.56,6.84C6.62,230-2.88,202.7,7,178.31,16.31,155.21,40.8,140.75,64.53,144.94Z"/><path class="cls-1" d="M145.25,191.56c7.68,5.55,15.12,10.88,22.46,16.34.89.66,1.31,2,1.82,3.14,6,13.26,17.51,19.52,30.21,19.18a31.24,31.24,0,0,0,28.88-21.48c5.32-16.34-2.48-33.12-18.43-39.74a6.54,6.54,0,0,1-2.68-2c-5.13-7-10.17-14.07-15.23-21.12a5.79,5.79,0,0,1-.45-1c22.29-4.2,46.08,9.07,56.29,31.28,10.34,22.51,3.86,49.06-15.8,64.91-19.1,15.4-47.38,15.93-67.52,0C148.33,228.16,141.46,205.29,145.25,191.56Z"/><path class="cls-1" d="M111,64.27c-7.73-5.53-15.18-10.83-22.58-16.21a5.66,5.66,0,0,1-1.5-2.34c-5.47-12.62-15.17-19.42-28.79-20C42,25,28.82,37.42,26.29,51.51a32,32,0,0,0,19.59,35.3A4.79,4.79,0,0,1,48,88.12c5.4,7.38,10.73,14.81,16.08,22.23-8.11,5.81-34.18-2.71-45.76-15.11-19-20.35-20.8-49.69-3-72.37,16-20.29,46.05-25.72,69.12-12.7C106.19,22.4,114.73,48.17,111,64.27Z"/><path class="cls-1" d="M198.62,111.72a54.27,54.27,0,1,0-49-30.86,10.38,10.38,0,0,1-3,.5q-18.61.24-37.23,0a10.76,10.76,0,0,1-5.74-1.89Q89.16,69.26,75,58.64a7.49,7.49,0,0,1-2.6-4.34c-1.23-6.72-8.87-12.87-15.59-12.23-7.83.76-14.16,6.8-14.44,13.81C42,64.47,47,70.81,55.29,72.52a5.32,5.32,0,0,1,3,1.73q11,15,21.8,30.15a6.79,6.79,0,0,1,1.14,3.66q.12,19.91,0,39.81a6.26,6.26,0,0,1-.94,3.45q-10.9,15.26-22,30.36a5.12,5.12,0,0,1-3,1.8c-8.1,1.37-13.4,8-13,16.54.32,6.54,6.68,13.08,13.09,13.47,9.16.55,15.4-4.15,17-12.58a6,6,0,0,1,2.11-3.47q15-11,30.19-21.74a6.81,6.81,0,0,1,3.68-1.12q19.62-.12,39.24,0a7.35,7.35,0,0,1,3.93,1.25q15.08,10.66,30,21.58a6,6,0,0,1,2.13,3.45c1.47,7.74,7.12,12.62,15,12.67,7.57,0,14.37-5.77,15.1-12.91.83-8.1-4.42-15.67-12.09-16.93a6.42,6.42,0,0,1-4.59-2.85c-6.88-9.62-13.89-19.16-20.71-28.82a8.71,8.71,0,0,1-1.49-4.69c-.12-12.6,0-25.2-.12-37.8a11.41,11.41,0,0,1,.39-3.16A54.15,54.15,0,0,0,198.62,111.72Zm-27-58.81,25.19-25a2.6,2.6,0,0,1,3.7,0l25.16,25a2.63,2.63,0,0,1-1.86,4.49H208.25V82.81a2.63,2.63,0,0,1-2.62,2.62h-14A2.63,2.63,0,0,1,189,82.81V57.4H173.45A2.63,2.63,0,0,1,171.59,52.91Z"/></svg>