<svg id="Layer_1" data-name="Layer 1" xmlns="http://www.w3.org/2000/svg" viewBox="0 0 256 256"><defs><style>.cls-1{fill:#fff;}</style></defs><title>upgrade</title><path class="cls-1" d="M121.38,137.69H78.2l-.19-.27L212.69,3l.19.15L136.3,115.65h43.95l.18.3L43.11,253l-.15-.12Z"/><path class="cls-1" d="M58.56,128a69.36,69.36,0,0,1,78.23-68.87l23.62-23.57A98,98,0,0,0,61.94,200.32L78.22,176.4A69.21,69.21,0,0,1,58.56,128Z"/><path class="cls-1" d="M194,55.6,177.7,79.52a69.32,69.32,0,0,1,18.56,35.74l.61,3.91a71.43,71.43,0,0,1,.57,8.83A69.38,69.38,0,0,1,119,196.85L95.44,220.39A98,98,0,0,0,194,55.6Z"/></svg>