<svg id="Layer_1" data-name="Layer 1" xmlns="http://www.w3.org/2000/svg" viewBox="0 0 256 256"><defs><style>.cls-1{fill:#fff;}</style></defs><title>hp</title><path class="cls-1" d="M245.3,113.66c4.12-7.36,7.3-15.08,7.64-23.6.69-17.53-4.72-33.11-16.34-46.18-16.1-18.12-36.41-25.75-60.52-22.38-13.79,1.93-25.91,8.06-37.15,16-3.74,2.64-7.27,5.57-11,8.43-.21-.16-.49-.38-.76-.61a111.83,111.83,0,0,0-27.71-18C84.85,20.77,69.62,18.35,54,22.68,26.94,30.18,10.27,47.92,4.25,75.42a48.35,48.35,0,0,0,1.62,27.43,82.5,82.5,0,0,0,19.6,30.05q45.93,46.07,92,92c3.5,3.5,7,7,10.49,10.62.61-.58,1.06-1,1.5-1.43q21.19-21.19,42.42-42.37v33.82h45.9V190.68h34.84v-45.9H218.87l7.41-7.4C233.52,130.17,240.28,122.62,245.3,113.66ZM119.15,150.32a4.83,4.83,0,0,1-4.34,3.26h-.23a4.85,4.85,0,0,1-4.4-2.83L92.33,111.42l-7.34,16a4.84,4.84,0,0,1-4.39,2.82H47.15a4.84,4.84,0,0,1,0-9.67H77.5L88,97.76a4.82,4.82,0,0,1,4.39-2.82h0a4.83,4.83,0,0,1,4.39,2.83L114,135.71,135.66,72.8a4.84,4.84,0,0,1,9-.35L162,112.64a4.83,4.83,0,1,1-8.87,3.83L140.74,87.73Zm121.4,6.53V178.6H205.71v34.84H184V178.6H149.12V156.85H184V122h21.75v34.84h34.84Z"/></svg>