<svg id="Layer_1" data-name="Layer 1" xmlns="http://www.w3.org/2000/svg" viewBox="0 0 256 256"><defs><style>.cls-1{fill:#fff;}</style></defs><title>uranium</title><path class="cls-1" d="M160.26,128h39.87a7.93,7.93,0,0,0,8.06-8.47,80.45,80.45,0,0,0-30-54.33,8.18,8.18,0,0,0-12.1,1.91l-21,33.67A32.08,32.08,0,0,1,160.26,128ZM111,155.27,89.9,189a8,8,0,0,0,2.92,11.34,78.64,78.64,0,0,0,70.41,0A8,8,0,0,0,166.16,189l-21.07-33.72a31.67,31.67,0,0,1-34.13,0ZM55.87,128H95.74A32.16,32.16,0,0,1,111,100.73L90,67.06a8.18,8.18,0,0,0-12.1-1.91,80.26,80.26,0,0,0-30,54.33c-.56,4.64,3.38,8.52,8,8.52ZM128,253A125,125,0,1,0,3,128,125,125,0,0,0,128,253Zm0-217.74A92.74,92.74,0,1,1,35.26,128,92.82,92.82,0,0,1,128,35.26Zm0,108.87A16.13,16.13,0,1,0,111.87,128,16.12,16.12,0,0,0,128,144.13Z"/></svg>