<svg id="Layer_1" data-name="Layer 1" xmlns="http://www.w3.org/2000/svg" viewBox="0 0 256 256"><defs><style>.cls-1{fill:#fff;}</style></defs><title>warp</title><path class="cls-1" d="M187.29,3H68.71A65.71,65.71,0,0,0,3,68.71V187.29A65.71,65.71,0,0,0,68.71,253H187.29A65.71,65.71,0,0,0,253,187.29V68.71A65.71,65.71,0,0,0,187.29,3ZM97.82,111.8h0L66.56,80.55a8.28,8.28,0,0,1-2.42-5.14,7.32,7.32,0,0,1,0-.81,8.27,8.27,0,0,1,1-3.9A8.45,8.45,0,0,1,66,69.3c.18-.22.38-.43.58-.64a8.4,8.4,0,0,1,11.88,0L109.7,99.92l18.3,18.3,49.56-49.56a8.27,8.27,0,0,1,2.78-1.84,8.39,8.39,0,0,1,9.1,1.84c.2.21.4.42.58.64a8.45,8.45,0,0,1,.92,1.4,8.27,8.27,0,0,1,1,3.9,7.32,7.32,0,0,1,0,.81,8.28,8.28,0,0,1-2.42,5.14L158.18,111.8h0L136.4,133.58v51.73a8.58,8.58,0,0,1-7.84,8.67,8.4,8.4,0,0,1-9-8.38v-52ZM72.5,119.6a45,45,0,1,1,44.18-36.47L90.76,57.2a26,26,0,0,0-17.55-7.8,25.12,25.12,0,0,0-20.8,10,24.77,24.77,0,0,0-4.9,11.85,25.12,25.12,0,0,0,7.17,21.21L81,118.78A45.19,45.19,0,0,1,72.5,119.6Zm53.71,111a45,45,0,0,1-23.42-82.23V185c0,14.11,11.54,26,25.64,25.78a25.24,25.24,0,0,0,24.78-25.2V148.33a45,45,0,0,1-27,82.23Zm57.29-111a45.19,45.19,0,0,1-8.53-.82l26.35-26.35a25.2,25.2,0,0,0,7-22.46,24.27,24.27,0,0,0-4-9.57,25.22,25.22,0,0,0-21.56-11,26,26,0,0,0-17.54,7.8L139.32,83.13A45,45,0,1,1,183.5,119.6Z"/></svg>