<svg id="Layer_1" data-name="Layer 1" xmlns="http://www.w3.org/2000/svg" viewBox="0 0 256 256"><defs><style>.cls-1{fill:#fff;}</style></defs><title>close</title><path class="cls-1" d="M128,3A125,125,0,1,0,253,128,125,125,0,0,0,128,3Zm61.29,157.81a6.05,6.05,0,0,1,0,8.57l-20,19.91a6.05,6.05,0,0,1-8.57,0L128,156.23,95.19,189.29a6.05,6.05,0,0,1-8.57,0l-19.91-20a6.05,6.05,0,0,1,0-8.57L99.77,128,66.71,95.19a6.05,6.05,0,0,1,0-8.57l20-20a6.05,6.05,0,0,1,8.57,0L128,99.77l32.81-33.06a6.05,6.05,0,0,1,8.57,0l20,20a6.05,6.05,0,0,1,0,8.57L156.23,128Z"/></svg>