<svg id="Layer_1" data-name="Layer 1" xmlns="http://www.w3.org/2000/svg" viewBox="0 0 256 256"><defs><style>.cls-1{fill:#fff;}</style></defs><title>soundOff</title><path class="cls-1" d="M108,37.69,64.55,81.12H14.72A11.72,11.72,0,0,0,3,92.84v70.31a11.72,11.72,0,0,0,11.72,11.72H64.55L108,218.31A11.73,11.73,0,0,0,128,210V46A11.73,11.73,0,0,0,108,37.69ZM228.41,128l22.28-22.29a7.87,7.87,0,0,0,0-11.14L239.55,83.43a7.87,7.87,0,0,0-11.14,0l-22.29,22.28L183.84,83.43a7.87,7.87,0,0,0-11.14,0L161.55,94.57a7.89,7.89,0,0,0,0,11.14L183.84,128l-22.28,22.28a7.87,7.87,0,0,0,0,11.14l11.14,11.14a7.87,7.87,0,0,0,11.14,0l22.28-22.28,22.29,22.29a7.89,7.89,0,0,0,11.14,0l11.14-11.14a7.88,7.88,0,0,0,0-11.15Z"/></svg>