<svg id="Layer_1" data-name="Layer 1" xmlns="http://www.w3.org/2000/svg" viewBox="0 0 256 256"><defs><style>.cls-1{fill:#fff;}</style></defs><title>bio</title><path class="cls-1" d="M128,65.48a69.18,69.18,0,0,1,22.92,4.17A39,39,0,0,0,163.72,52a90,90,0,0,0-71.31,0,39,39,0,0,0,12.8,17.67A69.37,69.37,0,0,1,128,65.48ZM74,207.3a39.57,39.57,0,0,0,10.64-18.41,69,69,0,0,1-25.57-47.57,36.17,36.17,0,0,0-11.46-2,35.31,35.31,0,0,0-9.76,1.34A90.41,90.41,0,0,0,74,207.3Zm97.32-18.5A39.64,39.64,0,0,0,182,207.25a90.14,90.14,0,0,0,36-66.63,36,36,0,0,0-9.64-1.3,37.07,37.07,0,0,0-11.55,2,68.92,68.92,0,0,1-25.48,47.44Zm49.27-89a70.22,70.22,0,0,0-24-8.64A75.74,75.74,0,0,0,201,66.78a75.57,75.57,0,0,0-17.8-48.7,3.4,3.4,0,0,0-4.34-.78,3.59,3.59,0,0,0-1.56,4.21,53.34,53.34,0,0,1,2.86,16.71c0,29.43-23.35,53.35-52.09,53.35S76,67.65,76,38.22a54.74,54.74,0,0,1,2.87-16.71,3.59,3.59,0,0,0-1.56-4.21,3.4,3.4,0,0,0-4.34.78,75.79,75.79,0,0,0-17.8,48.7,74.41,74.41,0,0,0,4.34,24.4,70.57,70.57,0,0,0-24,8.64A74.34,74.34,0,0,0,3.2,139.93a3.62,3.62,0,0,0,1.52,4.25,3.4,3.4,0,0,0,4.34-.69,51.62,51.62,0,0,1,12.68-10.9c24.87-14.72,56.78-6,71.14,19.53s5.82,58.17-19,72.89a51.17,51.17,0,0,1-15.54,5.81,3.6,3.6,0,0,0-2.78,3.52,3.5,3.5,0,0,0,2.82,3.47,70.5,70.5,0,0,0,69.67-26,70.5,70.5,0,0,0,69.67,26,3.5,3.5,0,0,0,2.82-3.47,3.55,3.55,0,0,0-2.78-3.52A49.76,49.76,0,0,1,182.17,225c-24.87-14.72-33.42-47.41-19-72.89s46.27-34.25,71.14-19.53a52.72,52.72,0,0,1,12.68,10.9,3.4,3.4,0,0,0,4.34.69,3.6,3.6,0,0,0,1.52-4.25,73.58,73.58,0,0,0-32.17-40.11Zm-92.63,56A20.84,20.84,0,1,1,148.84,135,20.84,20.84,0,0,1,128,155.81Z"/></svg>