<svg id="Layer_1" data-name="Layer 1" xmlns="http://www.w3.org/2000/svg" viewBox="0 0 256 256"><defs><style>.cls-1{fill:#fff;}</style></defs><title>globe</title><path class="cls-1" d="M172.63,79.61C165.32,34.6,148.09,3,128,3S90.73,34.6,83.42,79.61ZM79.64,128a315.5,315.5,0,0,0,1.66,32.26h93.4A315.5,315.5,0,0,0,176.36,128a315.5,315.5,0,0,0-1.66-32.26H81.3A315.5,315.5,0,0,0,79.64,128ZM243.3,79.61A125.3,125.3,0,0,0,163.66,8.24c12.3,17,20.77,42.69,25.2,71.37ZM92.34,8.24A125.21,125.21,0,0,0,12.75,79.61H67.19C71.57,50.93,80,25.28,92.34,8.24Zm156.35,87.5H190.88c1.06,10.59,1.66,21.42,1.66,32.26s-.6,21.67-1.66,32.26h57.76A124,124,0,0,0,253,128a126.16,126.16,0,0,0-4.28-32.26ZM63.51,128c0-10.84.6-21.67,1.66-32.26H7.36a122.34,122.34,0,0,0,0,64.52H65.12C64.11,149.67,63.51,138.84,63.51,128Zm19.91,48.39C90.73,221.4,108,253,128,253s37.29-31.6,44.6-76.61Zm80.29,71.37a125.42,125.42,0,0,0,79.64-71.37H188.91C184.48,205.07,176,230.72,163.71,247.76Zm-151-71.37a125.3,125.3,0,0,0,79.64,71.37c-12.3-17-20.77-42.69-25.2-71.37Z"/></svg>