<svg id="Layer_1" data-name="Layer 1" xmlns="http://www.w3.org/2000/svg" viewBox="0 0 256 256"><defs><style>.cls-1{fill:#fff;}</style></defs><title>radar</title><path class="cls-1" d="M95.2,171.93l13.38-13.38a14.34,14.34,0,0,0,3.81.78,15.63,15.63,0,1,0-15.63-15.62,13.9,13.9,0,0,0,.79,3.8L84.17,160.9l-57-57c-3.57-3.57-9.82-3-12.21,1.46A100.25,100.25,0,0,0,150.68,241.08c4.49-2.39,5.08-8.64,1.46-12.21ZM105.07,3a7.87,7.87,0,0,0-8.31,7.82V26.26A7.73,7.73,0,0,0,104.09,34c63.19,3.42,114,54.7,117.64,117.94a7.81,7.81,0,0,0,7.77,7.32h15.67A7.86,7.86,0,0,0,253,151C248.84,71.28,184.77,7.21,105.07,3Zm.14,46.88a7.89,7.89,0,0,0-8.45,7.87V73.43A7.8,7.8,0,0,0,104,81.2c37.51,3.07,67.39,33.3,70.76,70.91a7.86,7.86,0,0,0,7.77,7.17h15.72a7.9,7.9,0,0,0,7.87-8.44A109.89,109.89,0,0,0,105.21,49.89Z"/></svg>