<svg id="Layer_1" data-name="Layer 1" xmlns="http://www.w3.org/2000/svg" viewBox="0 0 256 256"><defs><style>.cls-1{fill:#fff;}</style></defs><title>soundOn</title><path class="cls-1" d="M96.33,47.72,57.71,86.33H13.42A10.41,10.41,0,0,0,3,96.75v62.5a10.41,10.41,0,0,0,10.42,10.41H57.71l38.62,38.61a10.42,10.42,0,0,0,17.78-7.36V55.09A10.42,10.42,0,0,0,96.33,47.72ZM197.6,25.55a10.5,10.5,0,1,0-11.53,17.56,101.41,101.41,0,0,1,0,169.78,10.5,10.5,0,1,0,11.53,17.56,122.43,122.43,0,0,0,0-204.9ZM211.33,128a80.14,80.14,0,0,0-37.22-67.82,10.39,10.39,0,0,0-14.38,3.24A10.54,10.54,0,0,0,163,77.9a59.32,59.32,0,0,1,0,100.19,10.54,10.54,0,0,0-3.22,14.48,10.4,10.4,0,0,0,14.38,3.24A80.13,80.13,0,0,0,211.33,128ZM149.8,94.63a10.42,10.42,0,0,0-10.05,18.26,17.11,17.11,0,0,1,0,30.22,10.42,10.42,0,1,0,10.06,18.25,38,38,0,0,0,0-66.73Z"/></svg>