<svg id="Layer_1" data-name="Layer 1" xmlns="http://www.w3.org/2000/svg" viewBox="0 0 256 256"><defs><style>.cls-1{fill:#fff;}</style></defs><title>warning</title><path class="cls-1" d="M250.19,207.87a20.85,20.85,0,0,1-18.05,31.24H23.86a20.85,20.85,0,0,1-18-31.24L110,27.3a20.85,20.85,0,0,1,36.1,0L250.19,207.87ZM128,170.53a20,20,0,1,0,20,20A20,20,0,0,0,128,170.53ZM109,98.77l3.22,59a5.22,5.22,0,0,0,5.2,4.92h21.08a5.21,5.21,0,0,0,5.2-4.92l3.22-59a5.22,5.22,0,0,0-5.21-5.49H114.24a5.21,5.21,0,0,0-5.2,5.49Z"/></svg>