<svg id="Layer_1" data-name="Layer 1" xmlns="http://www.w3.org/2000/svg" viewBox="0 0 256 256"><defs><style>.cls-1{fill:#fff;}</style></defs><title>signIn</title><path class="cls-1" d="M206.13,219.79h-41a5.88,5.88,0,0,1-5.86-5.86V194.4a5.87,5.87,0,0,1,5.86-5.86h41a15.61,15.61,0,0,0,15.62-15.63V79.16a15.6,15.6,0,0,0-15.62-15.62h-41a5.88,5.88,0,0,1-5.86-5.86V38.15a5.87,5.87,0,0,1,5.86-5.86h41A46.88,46.88,0,0,1,253,79.16v93.75A46.89,46.89,0,0,1,206.13,219.79Zm-22.95-98.15-82-82a11.73,11.73,0,0,0-20,8.3V94.79H14.72A11.69,11.69,0,0,0,3,106.51v46.87A11.69,11.69,0,0,0,14.72,165.1H81.13V212a11.73,11.73,0,0,0,20,8.3l82-82A11.82,11.82,0,0,0,183.18,121.64Z"/></svg>