<svg id="Layer_1" data-name="Layer 1" xmlns="http://www.w3.org/2000/svg" viewBox="0 0 256 256"><defs><style>.cls-1{fill:#fff;}</style></defs><title>user-01</title><path class="cls-1" d="M232.17,30.78H23.83A20.84,20.84,0,0,0,3,51.61v7H253v-7A20.84,20.84,0,0,0,232.17,30.78Z"/><path class="cls-1" d="M74.29,148.69h10.2a20.39,20.39,0,0,0,20.38-20.38v-5.1c0-4.69-4.56-8.49-10.19-8.49H64.1c-5.63,0-10.19,3.8-10.19,8.49v5.1A20.39,20.39,0,0,0,74.29,148.69Z"/><path class="cls-1" d="M3,204.39a20.84,20.84,0,0,0,20.83,20.83H232.17A20.84,20.84,0,0,0,253,204.39V72.44H3Zm152.78-100.7a3.48,3.48,0,0,1,3.47-3.47h62.5a3.48,3.48,0,0,1,3.47,3.47v7a3.48,3.48,0,0,1-3.47,3.47h-62.5a3.48,3.48,0,0,1-3.47-3.47Zm0,27.78a3.48,3.48,0,0,1,3.47-3.47h62.5a3.48,3.48,0,0,1,3.47,3.47v6.95a3.48,3.48,0,0,1-3.47,3.47h-62.5a3.48,3.48,0,0,1-3.47-3.47Zm0,27.78a3.48,3.48,0,0,1,3.47-3.47h62.5a3.48,3.48,0,0,1,3.47,3.47v6.94a3.49,3.49,0,0,1-3.47,3.48h-62.5a3.49,3.49,0,0,1-3.47-3.48ZM42,118.12a3.4,3.4,0,0,1,3.39-3.4h2.87a33.93,33.93,0,0,1,62.22,0h2.86a3.41,3.41,0,0,1,3.4,3.4V138.5a3.41,3.41,0,0,1-3.4,3.4H110.5a33.93,33.93,0,0,1-62.22,0H45.41A3.4,3.4,0,0,1,42,138.5Zm-10.2,72.7a28.47,28.47,0,0,1,25.57-28.24,40.48,40.48,0,0,0,44,0A28.46,28.46,0,0,1,127,190.82v2a10.2,10.2,0,0,1-10.19,10.2h-17V189.47a6.79,6.79,0,0,0-6.79-6.8H65.8a6.79,6.79,0,0,0-6.8,6.8v13.59H42a10.2,10.2,0,0,1-10.2-10.2Z"/></svg>