<svg id="Layer_1" data-name="Layer 1" xmlns="http://www.w3.org/2000/svg" viewBox="0 0 256 256"><defs><style>.cls-1{fill:#fff;}</style></defs><title>signOut</title><path class="cls-1" d="M249.54,136.43,166.2,219.77a11.93,11.93,0,0,1-20.34-8.44V163.71H78.4a11.87,11.87,0,0,1-11.9-11.9V104.18a11.87,11.87,0,0,1,11.9-11.9h67.46V44.66a11.93,11.93,0,0,1,20.34-8.44l83.34,83.34A12,12,0,0,1,249.54,136.43ZM98.24,217.28V197.44a6,6,0,0,0-5.95-5.95H50.62a15.85,15.85,0,0,1-15.87-15.87V80.37A15.85,15.85,0,0,1,50.62,64.5H92.29a6,6,0,0,0,5.95-6V38.7a6,6,0,0,0-5.95-6H50.62A47.63,47.63,0,0,0,3,80.37v95.25a47.63,47.63,0,0,0,47.62,47.62H92.29A6,6,0,0,0,98.24,217.28Z"/></svg>