<svg id="Layer_1" data-name="Layer 1" xmlns="http://www.w3.org/2000/svg" viewBox="0 0 256 256"><defs><style>.cls-1{fill:#fff;}</style></defs><title>chat</title><path class="cls-1" d="M241.22,40H59.9A56.91,56.91,0,0,0,3,96.88V204.24A11.77,11.77,0,0,0,14.78,216H196.1a56.91,56.91,0,0,0,56.9-56.9V51.76A11.77,11.77,0,0,0,241.22,40ZM80.31,137.38a7.19,7.19,0,0,1-3.6,6.23L60.46,153a7.19,7.19,0,0,1-7.18,0L37,143.61a7.19,7.19,0,0,1-3.6-6.23V118.62a7.19,7.19,0,0,1,3.6-6.23L53.28,103a7.19,7.19,0,0,1,7.18,0l16.25,9.38a7.19,7.19,0,0,1,3.6,6.23Zm71.13,0a7.19,7.19,0,0,1-3.6,6.23L131.59,153a7.19,7.19,0,0,1-7.18,0l-16.25-9.38a7.19,7.19,0,0,1-3.6-6.23V118.62a7.19,7.19,0,0,1,3.6-6.23L124.41,103a7.19,7.19,0,0,1,7.18,0l16.25,9.38a7.19,7.19,0,0,1,3.6,6.23Zm71.13,0a7.19,7.19,0,0,1-3.6,6.23L202.72,153a7.19,7.19,0,0,1-7.18,0l-16.25-9.38a7.19,7.19,0,0,1-3.6-6.23V118.62a7.19,7.19,0,0,1,3.6-6.23L195.54,103a7.19,7.19,0,0,1,7.18,0L219,112.39a7.19,7.19,0,0,1,3.6,6.23Z"/></svg>