<svg id="Layer_1" data-name="Layer 1" xmlns="http://www.w3.org/2000/svg" viewBox="0 0 256 256"><defs><style>.cls-1{fill:#fff;}</style></defs><title>cog</title><path class="cls-1" d="M233.19,152.59l-.49-.29a21.71,21.71,0,0,1-10.77-19.87c.06-1.47.1-3,.1-4.43s0-3-.1-4.43A21.71,21.71,0,0,1,232.7,103.7l.49-.29A21.59,21.59,0,0,0,241.1,73.9l-9.69-16.8a21.61,21.61,0,0,0-29.52-7.9l-.49.28a21.71,21.71,0,0,1-22.62-.63c-2.49-1.59-5.05-3.08-7.68-4.44a21.67,21.67,0,0,1-11.8-19.25v-.55A21.6,21.6,0,0,0,137.69,3H118.31A21.6,21.6,0,0,0,96.7,24.61v.55A21.67,21.67,0,0,1,84.9,44.41c-2.63,1.36-5.19,2.85-7.68,4.44a21.71,21.71,0,0,1-22.62.63l-.49-.28a21.61,21.61,0,0,0-29.52,7.9L14.9,73.9a21.59,21.59,0,0,0,7.91,29.51l.49.29a21.71,21.71,0,0,1,10.77,19.87c-.06,1.47-.1,3-.1,4.43s0,3,.1,4.43A21.71,21.71,0,0,1,23.3,152.3l-.49.29A21.59,21.59,0,0,0,14.9,182.1l9.69,16.8a21.61,21.61,0,0,0,29.52,7.9l.49-.28a21.71,21.71,0,0,1,22.62.63c2.49,1.59,5,3.08,7.68,4.44a21.67,21.67,0,0,1,11.8,19.25v.55A21.6,21.6,0,0,0,118.31,253h19.38a21.6,21.6,0,0,0,21.61-21.61v-.55a21.67,21.67,0,0,1,11.8-19.25c2.63-1.36,5.19-2.85,7.68-4.44a21.71,21.71,0,0,1,22.62-.63l.49.28a21.61,21.61,0,0,0,29.52-7.9l9.69-16.8A21.59,21.59,0,0,0,233.19,152.59Zm-61.7-8.71a16,16,0,0,1-8,13.84L136,173.6a16,16,0,0,1-16,0L92.5,157.72a16,16,0,0,1-8-13.84V112.12a16,16,0,0,1,8-13.84L120,82.4a16,16,0,0,1,16,0L163.5,98.28a16,16,0,0,1,8,13.84Z"/><path class="cls-1" d="M153.37,137.13V118.87a9.54,9.54,0,0,0-4.77-8.27l-15.83-9.14a9.56,9.56,0,0,0-9.54,0L107.4,110.6a9.54,9.54,0,0,0-4.77,8.27v18.26a9.54,9.54,0,0,0,4.77,8.27l15.83,9.14a9.56,9.56,0,0,0,9.54,0l15.83-9.14A9.54,9.54,0,0,0,153.37,137.13Z"/></svg>