<svg id="Layer_1" data-name="Layer 1" xmlns="http://www.w3.org/2000/svg" viewBox="0 0 256 256"><defs><style>.cls-1{fill:#fff;}</style></defs><title>fu</title><path class="cls-1" d="M185,184.91c-1.49,7.38.14,14.13,3.2,20.84-7.74-3.38-14.61-13.62-16.16-23.29-1.63-10.24,1.16-19.28,7.35-27.75-13.5,3.08-24,16.6-24.72,31.33a34.69,34.69,0,0,0,23.71,34.22c13.07,4.38,29.32,0,36-9.79Q192.21,206.36,185,184.91Z"/><path class="cls-1" d="M237.34,3H68.72A65.73,65.73,0,0,0,3,68.72V237.34A15.66,15.66,0,0,0,18.66,253H187.28A65.73,65.73,0,0,0,253,187.28V18.66A15.66,15.66,0,0,0,237.34,3ZM40.92,55H214.13a5.62,5.62,0,1,1,0,11.23H40.92a5.62,5.62,0,0,1,0-11.23ZM38.11,91.48H60.59a2.81,2.81,0,0,1,0,5.62H38.11a2.81,2.81,0,0,1,0-5.62ZM85.87,201H40.92a5.62,5.62,0,0,1,0-11.23h45a5.62,5.62,0,1,1,0,11.23ZM35.31,161.71a2.8,2.8,0,0,1,2.8-2.81H60.59a2.81,2.81,0,0,1,0,5.62H38.11A2.8,2.8,0,0,1,35.31,161.71Zm87.07-28.09H40.92a5.62,5.62,0,0,1,0-11.24h81.46a5.62,5.62,0,0,1,0,11.24Zm115.51,56.82c-.83,23.62-18,42.39-42.56,46.11-20.79,3.16-43.05-11.27-50.09-32.47-7.35-22.14.35-44.58,20-59a114.34,114.34,0,0,0,14.06-11.68c5.9-6,8.76-13.37,7.24-22-.31-1.76-.92-3.48-1.59-6,12.73,7.75,22,17.36,26.47,31,4.43,13.35,3.18,26.9.65,41.18,9.92-8.17,11.44-18.54,11.24-30.12a12.79,12.79,0,0,1,1.42,1.06c.6.67,1.15,1.37,1.71,2.06C235.89,162.3,238.41,175.87,237.89,190.44Z"/></svg>