<svg id="Layer_1" data-name="Layer 1" xmlns="http://www.w3.org/2000/svg" viewBox="0 0 256 256"><defs><style>.cls-1{fill:#fff;}</style></defs><title>tab</title><path class="cls-1" d="M114.43,205.87,44.21,162.49a6.91,6.91,0,0,0-7.25,0l-7.52,4.65a15,15,0,0,0,0,25.49L113,244.24a28.64,28.64,0,0,0,30.06,0l83.52-51.61a15,15,0,0,0,0-25.49L219,162.49a6.91,6.91,0,0,0-7.25,0l-70.22,43.38A25.81,25.81,0,0,1,114.43,205.87Z"/><path class="cls-1" d="M226.55,90l-85.41,52.77a25,25,0,0,1-26.28,0L29.45,90a15,15,0,0,1,0-25.49l86.65-53.6a22.66,22.66,0,0,1,23.82,0l86.65,53.6A15,15,0,0,1,226.55,90Z"/><path class="cls-1" d="M114.23,154.42l-70-43.26a6.91,6.91,0,0,0-7.25,0l-7.52,4.65a15,15,0,0,0,0,25.49l84.72,52.34a26.3,26.3,0,0,0,27.66,0l84.72-52.34a15,15,0,0,0,0-25.49L219,111.16a6.91,6.91,0,0,0-7.25,0l-70,43.26A26.22,26.22,0,0,1,114.23,154.42Z"/></svg>