<svg id="Layer_1" data-name="Layer 1" xmlns="http://www.w3.org/2000/svg" viewBox="0 0 256 256"><defs><style>.cls-1{fill:#fff;}</style></defs><title>o2</title><path class="cls-1" d="M128,3a125,125,0,0,0,0,250H253V128A125,125,0,0,0,128,3Zm25.82,84.51A5.82,5.82,0,1,1,148,93.33,5.83,5.83,0,0,1,153.82,87.51ZM72.13,45.77a5.82,5.82,0,1,1-5.82,5.81A5.81,5.81,0,0,1,72.13,45.77Zm0,91.53a13,13,0,1,1,13-13.05A13,13,0,0,1,72.13,137.3Zm21.93,45.78a8.89,8.89,0,1,1,8.89-8.89A8.89,8.89,0,0,1,94.06,183.08Zm18.56-87.76A23.19,23.19,0,1,1,135.8,72.13,23.19,23.19,0,0,1,112.62,95.32Zm127.6,81.85a21.72,21.72,0,0,1-21.61,21.61h-60.4v17.33h82v22.64H135.56V197.46a20.53,20.53,0,0,1,6.37-15.18A20.93,20.93,0,0,1,157.17,176h60.41V154.82H158.21v8.58H135.56v-9.77a20.52,20.52,0,0,1,6.37-15.16,20.9,20.9,0,0,1,15.24-6.29h61.44a20.9,20.9,0,0,1,15.25,6.29,20.55,20.55,0,0,1,6.36,15.16Z"/></svg>