<svg id="Layer_1" data-name="Layer 1" xmlns="http://www.w3.org/2000/svg" viewBox="0 0 256 256"><defs><style>.cls-1{fill:#fff;}</style></defs><title>player-01</title><path class="cls-1" d="M49.88,112.38h6.59a78,78,0,0,0,143.06,0h6.6a7.84,7.84,0,0,0,7.81-7.82V57.69a7.83,7.83,0,0,0-7.81-7.81h-6.6a78,78,0,0,0-143.06,0H49.88a7.84,7.84,0,0,0-7.82,7.81v46.87A7.84,7.84,0,0,0,49.88,112.38Zm19.53-43c0-10.79,10.49-19.53,23.43-19.53h70.32c12.94,0,23.43,8.74,23.43,19.53V81.13A46.88,46.88,0,0,1,139.72,128H116.28A46.88,46.88,0,0,1,69.41,81.13Zm35.15,35.15L110.42,87,128,81.13l-17.58-5.86-5.86-17.58L98.7,75.27,81.13,81.13,98.7,87Zm74,55.37a93.07,93.07,0,0,1-101.18,0C44.46,163.4,18.63,191,18.63,224.87v4.69A23.44,23.44,0,0,0,42.06,253H81.13V221.75a15.6,15.6,0,0,1,15.62-15.62h62.5a15.61,15.61,0,0,1,15.63,15.62V253h39.06a23.45,23.45,0,0,0,23.44-23.44v-4.69C237.38,191,211.54,163.4,178.59,159.93Zm-74,61.82a7.84,7.84,0,0,0-7.81,7.81V253h15.63V229.56A7.84,7.84,0,0,0,104.56,221.75Z"/><polygon class="cls-1" points="144.27 225.42 144.27 233.7 151.44 237.84 158.61 233.7 158.61 225.42 151.44 221.28 144.27 225.42"/></svg>