<svg id="Layer_1" data-name="Layer 1" xmlns="http://www.w3.org/2000/svg" viewBox="0 0 256 256"><defs><style>.cls-1{fill:#fff;}</style></defs><title>meteor</title><path class="cls-1" d="M242.81,3.36C223.92,9,188.23,20.11,151.17,33.29c-1-3.42-1.95-6.59-2.73-9.08a7.84,7.84,0,0,0-11.18-4.64C116.56,30.36,62.66,59.9,32.59,89.14c-.54.49-1.22,1-1.71,1.47a95.12,95.12,0,0,0,134.55,134.5c.49-.49,1-1.17,1.46-1.71,29.2-30.08,58.78-84,69.57-104.67a7.83,7.83,0,0,0-4.64-11.18c-2.53-.79-5.66-1.71-9.08-2.74,13.19-37.1,24.27-72.74,29.93-91.64A7.9,7.9,0,0,0,242.81,3.36ZM96.74,221.74a62.49,62.49,0,1,1,62.49-62.49A62.49,62.49,0,0,1,96.74,221.74ZM81.11,128a15.63,15.63,0,1,0,15.63,15.62A15.6,15.6,0,0,0,81.11,128Zm23.44,46.87a7.81,7.81,0,1,0,7.81,7.81A7.83,7.83,0,0,0,104.55,174.87Z"/></svg>