<svg id="Layer_1" data-name="Layer 1" xmlns="http://www.w3.org/2000/svg" viewBox="0 0 256 256"><defs><style>.cls-1{fill:#fff;}</style></defs><title>ship</title><path class="cls-1" d="M109.35,21.51c-6,12.84-9.47,30-9.47,47.12V180.22a26.18,26.18,0,0,0-6.25,6.53V106.13C81.81,163.49,40.5,167.3,40.5,215.5h50v6.25h-50c0,10.36,11.19,18.75,25,18.75h25c0,9.06,3.92,12.5,9.38,12.5H115.5c5.46,0,9.38-3.44,9.38-12.5h6.25c0,9.06,3.91,12.5,9.37,12.5h15.63c5.46,0,9.37-3.44,9.37-12.5h25c13.81,0,25-8.39,25-18.75h-50V215.5h50c0-48.2-41.31-52-53.12-109.37v80.62a26.54,26.54,0,0,0-6.25-6.53V68.63c0-17.11-3.46-34.28-9.48-47.12C141.22,9.92,134.25,3,128,3S114.78,9.92,109.35,21.51Zm34.28,40.87a3.13,3.13,0,0,1-3.13,3.12h-25a3.12,3.12,0,0,1-3.12-3.12C112.38,49.91,143.63,49.9,143.63,62.38Z"/></svg>